<svg width="1197" height="1197" viewBox="0 0 1197 1197" fill="none" xmlns="http://www.w3.org/2000/svg">
<mask id="mask0_716_1237" style="mask-type:alpha" maskUnits="userSpaceOnUse" x="0" y="0" width="1197" height="1197">
<circle cx="598.033" cy="598.033" r="598.033" fill="#D9D9D9"/>
</mask>
<g mask="url(#mask0_716_1237)">
<rect width="1200" height="1200" fill="#F7EEFF"/>
<path d="M1056.08 1334.9H64.3113C64.3113 1334.9 110.586 1185.1 145.488 1046.67C159.213 992.55 184.703 918.824 216.076 897.256C259.213 867.452 330.586 850.589 362.743 839.216C385.096 831.373 402.35 828.628 418.429 824.314C418.429 826.275 418.821 827.844 418.821 829.805C418.821 829.805 454.507 909.805 564.703 954.118C654.507 990.589 685.88 976.079 694.115 935.687C699.213 909.805 712.154 903.922 703.919 890.197C699.213 886.275 696.076 880.393 694.507 874.511L691.37 861.569C698.821 860.001 705.88 858.04 712.939 855.687C715.292 854.903 717.252 854.118 719.605 853.334C763.135 878.04 823.135 885.883 895.684 939.216C908.625 948.628 946.272 989.413 961.958 1088.63C983.919 1219.22 1056.08 1334.9 1056.08 1334.9Z" fill="#232323"/>
<path d="M1063.14 1338.82C768.627 1340 354.509 1343.92 64.3129 1343.14C59.607 1343.14 56.0776 1339.61 56.0776 1334.9C67.4502 1286.27 85.8816 1216.08 98.4306 1167.06C108.235 1127.45 120.391 1083.14 130.195 1043.14C144.313 990.98 161.96 923.137 206.274 888.627C220.784 879.216 236.862 872.549 252.156 866.667C285.882 854.118 320.391 844.706 354.901 834.117C374.509 826.667 396.47 821.961 416.862 816.078C421.176 814.902 425.489 817.255 426.666 821.176C427.058 822.353 427.058 827.451 427.45 828.627L419.215 821.176C422.352 821.176 425.489 823.137 426.666 825.882C429.803 832.549 434.117 839.608 438.431 845.882C479.999 905.882 547.058 944.314 616.862 962.353C636.862 966.666 663.529 971.765 678.038 954.118C687.45 941.961 687.058 923.137 694.509 909.804C697.254 903.529 700.391 899.608 697.254 894.118L698.823 896.078C693.725 891.372 689.803 885.49 687.842 879.216C686.274 873.333 685.097 868.235 683.921 863.137C682.744 858.823 685.882 854.118 690.195 853.333C699.215 851.372 708.627 848.627 717.254 845.49C719.607 844.706 721.96 845.098 723.921 845.882C735.293 850.98 747.058 855.294 759.215 859.608C797.254 871.765 835.293 884.706 870.195 904.706C881.96 911.372 893.333 918.823 904.313 926.667C917.254 936.47 925.489 947.451 933.725 960.392C963.529 1007.06 972.94 1060.78 982.744 1114.12C997.646 1183.14 1023.53 1249.8 1054.12 1313.33L1058.43 1321.96L1060.39 1326.27L1061.57 1328.24L1061.96 1329.41L1062.35 1329.8C1062.35 1329.41 1062.74 1330.2 1063.14 1331.37C1064.71 1334.12 1064.31 1337.25 1063.14 1338.82ZM1049.02 1330.98C1047.84 1332.55 1047.45 1335.29 1048.23 1337.25C1048.63 1338.43 1049.02 1339.22 1049.02 1338.82L1048.63 1338.43L1047.84 1337.25L1046.67 1335.29C1020.78 1290.98 999.215 1244.31 982.352 1196.08C971.372 1164.71 962.352 1132.94 956.47 1100C949.411 1056.47 938.431 1010.98 914.901 973.333C908.627 963.529 900.784 952.941 891.372 945.882C880.784 938.431 870.195 930.98 859.215 924.706C837.254 911.372 813.725 900.784 789.803 891.372C765.882 881.568 740.391 874.117 716.47 860.392L723.136 860.784C713.725 864.314 703.921 867.059 693.725 869.019L699.999 859.216C702.352 867.843 702.744 878.039 709.803 883.921C714.117 888.627 716.078 896.863 714.901 903.529C713.725 909.412 711.372 913.333 709.803 916.863C706.274 924.314 703.921 930.588 702.352 938.823C688.627 1007.06 609.803 980.784 565.097 963.137C502.352 938.039 443.921 894.118 412.156 833.333L419.607 838.039C415.293 838.039 411.764 834.902 411.372 830.588L410.98 825.49L421.176 832.549C399.215 836.47 379.607 839.608 359.215 847.059C312.548 861.568 262.744 873.725 222.352 901.568C180.391 932.157 156.47 1040.78 143.136 1090.98C128.627 1146.27 113.333 1201.18 97.2541 1255.69C89.0188 1283.14 80.7835 1310.2 72.1561 1337.65L64.3129 1327.06C349.019 1326.67 760.391 1328.63 1049.02 1330.98Z" fill="#232323"/>
<path d="M658.429 983.531C658.821 983.923 658.821 983.923 659.214 984.315C659.214 983.923 659.214 983.531 659.214 983.531C659.214 983.531 658.821 983.531 658.429 983.531Z" fill="#E5E5E5"/>
<path d="M752.157 838.04C752.157 838.04 752.157 800.393 719.216 790.589C658.432 772.158 543.53 763.922 466.667 763.922C466.667 763.922 434.118 766.275 422.354 772.158C410.981 777.648 397.255 781.177 394.118 806.667C392.55 819.216 392.55 839.216 392.942 856.864C393.334 880.393 402.746 903.138 419.216 920.001C445.491 947.06 500.001 982.354 562.353 992.942C712.55 1018.04 753.334 952.55 752.157 917.648C750.589 877.256 752.157 838.04 752.157 838.04Z" fill="#232323"/>
<path d="M743.922 837.648C743.138 820.785 734.118 802.746 716.863 798.04C711.373 796.471 705.883 794.903 700.785 793.726C624.314 776.863 545.099 772.942 466.667 771.765C456.471 772.942 436.863 774.511 425.491 779.216C420.785 781.569 414.903 783.922 410.981 787.06C401.961 794.903 401.569 808.628 401.177 820.785C400.785 827.844 400.785 834.903 400.785 841.962C398.432 889.805 419.609 915.295 457.648 940.785C486.275 960.393 518.432 974.511 552.55 982.354C599.216 991.373 650.981 995.687 695.687 977.648C719.216 968.236 741.177 948.236 743.922 922.354C744.314 916.863 743.922 907.452 743.922 901.962C743.138 881.569 743.138 858.432 743.922 837.648ZM760.001 838.04C759.609 858.824 759.609 881.177 760.001 901.962C760.001 908.628 760.785 918.04 760.001 924.314C756.471 957.256 730.197 981.962 701.569 993.726C656.471 1012.55 606.275 1009.41 559.216 1001.96C549.02 1000 536.471 997.256 526.667 994.118C484.314 980.393 444.707 958.432 412.942 927.06C390.197 904.707 381.569 873.334 383.53 842.354C384.707 819.609 380.785 792.55 399.609 774.903C405.491 770.197 411.373 767.452 417.648 764.707C433.726 758.432 449.412 757.256 465.883 755.687C518.824 756.079 571.765 758.824 624.707 765.099C656.079 769.02 687.844 773.334 718.432 782.354L720.785 783.138L723.53 784.314C737.256 790.981 743.138 805.491 750.981 817.256C756.079 823.53 759.609 830.197 760.001 838.04Z" fill="#232323"/>
<path d="M395.685 856.471C404.313 982.354 598.43 1116.86 713.725 1047.06C743.921 1026.67 752.156 987.844 751.372 953.726C751.372 941.961 750.195 930.197 749.411 918.04C749.019 915.295 753.725 914.51 754.117 917.256C770.587 983.138 762.352 1056.08 685.489 1075.69C577.646 1101.96 455.293 1022.75 407.842 927.844C396.862 905.883 389.803 881.569 389.411 857.256C389.803 853.334 395.293 852.55 395.685 856.471Z" fill="#E5E5E5"/>
<path d="M717.644 963.137C709.409 1003.53 656.075 1027.84 566.271 991.372C472.938 953.725 432.546 863.921 422.35 837.255C477.644 733.725 439.213 661.961 439.213 661.961C566.664 650.98 678.036 800 678.036 800L695.291 873.725C696.86 880 699.997 885.49 704.703 889.412C712.938 903.921 722.742 937.255 717.644 963.137Z" fill="#FFDEC3"/>
<path d="M710.587 902.745C635.685 898.823 574.508 875.294 514.901 769.02C565.097 813.333 624.312 830.196 686.665 838.039L694.901 874.117C696.469 880.392 705.881 898.823 710.587 902.745Z" fill="#EFBDA5"/>
<path d="M859.214 417.255C866.273 450.196 860.783 472.157 857.645 563.137C854.508 652.549 828.626 778.824 796.861 810.588C772.547 834.51 694.508 853.334 625.096 835.686C589.802 826.667 559.998 806.275 535.685 791.765C505.096 773.333 478.43 716.471 456.469 680C439.214 651.373 440.783 685.883 418.43 661.177C387.449 627.451 350.194 559.608 368.626 439.608C398.43 245.098 552.547 222.353 666.665 243.922C781.567 265.49 840.391 330.588 859.214 417.255Z" fill="#FFDEC3"/>
<path d="M484.315 570.98C484.315 570.98 472.158 512.157 414.904 519.215C365.492 525.49 348.237 643.921 460.394 676.863" fill="#FFDEC3"/>
<path d="M455.293 625.491C446.273 620.393 439.999 611.765 439.606 601.177C439.999 593.334 441.175 584.314 439.214 576.471C438.038 569.02 430.195 567.059 424.312 567.451C418.038 568.628 414.116 576.471 412.94 582.746C412.94 583.138 412.548 584.314 412.548 584.706C412.155 586.667 409.018 586.667 408.234 584.706C403.136 569.412 414.508 552.549 430.979 554.51C454.116 556.079 457.253 580.393 452.94 598.824C450.587 606.667 453.724 613.726 458.038 620.393L458.822 621.569C460.783 623.922 457.646 627.059 455.293 625.491Z" fill="#423232"/>
<path d="M769.022 529.412C774.904 557.255 785.885 583.137 799.61 607.451C811.767 637.255 780.394 665.49 752.551 664.313C749.414 664.313 749.022 660 751.767 659.215C769.414 653.725 785.492 641.961 788.237 623.921C789.414 618.431 787.845 613.725 785.1 609.019C772.159 584.706 764.316 556.862 766.277 529.412C766.277 527.451 769.022 527.451 769.022 529.412Z" fill="#423232"/>
<path d="M482.353 571.373C473.334 548.235 453.726 526.275 427.451 526.667C425.098 526.275 421.177 527.059 418.824 527.059C412.157 527.451 406.667 529.804 401.569 534.51C376.471 559.608 380.785 603.922 401.177 631.765C408.236 641.569 417.255 650.196 427.451 657.255C437.647 664.314 449.02 669.804 461.177 674.51C463.922 675.294 462.745 679.608 460 679.216C433.726 673.725 408.628 660.784 391.373 639.216C364.706 607.059 359.216 553.333 390.981 521.961C398.039 515.686 407.843 510.98 417.647 510.98C420.785 510.98 425.49 510.196 428.628 510.98C445.098 511.765 460.785 520 470.981 532.941C480 543.922 485.098 557.255 486.667 570.588C486.667 572.941 483.138 573.725 482.353 571.373Z" fill="#423232"/>
<path d="M730.194 701.96C730.587 708.235 725.881 719.215 717.253 727.058C672.939 700 652.939 714.117 652.939 714.117C637.253 690.196 640.783 657.647 678.822 682.353C705.096 699.607 721.567 702.353 730.194 701.96Z" fill="#423232"/>
<path d="M716.861 727.451C707.449 735.686 693.331 740.784 674.116 732.941C665.096 729.411 658.037 722.352 652.547 714.509C652.939 714.509 672.547 700.392 716.861 727.451Z" fill="#FFCFD6"/>
<path d="M737.645 700.784C737.645 700.784 721.175 709.804 678.822 682.745C628.234 650.196 638.43 718.431 674.116 732.941C711.371 748.235 730.586 714.902 730.194 702.353" stroke="#423232" stroke-width="3" stroke-miterlimit="10" stroke-linecap="round" stroke-linejoin="round"/>
<path d="M652.941 714.509C652.941 714.509 672.941 700.392 717.255 727.451" stroke="#423232" stroke-width="3" stroke-miterlimit="10" stroke-linecap="round" stroke-linejoin="round"/>
<path d="M622.746 569.412C613.334 569.02 606.275 561.177 607.06 551.765L607.452 540.785C607.844 531.373 615.687 524.314 625.099 525.099C634.511 525.491 641.57 533.334 640.785 542.746L640.393 553.726C640.001 562.746 632.158 569.804 622.746 569.412Z" fill="#423232"/>
<path d="M787.843 575.295C779.215 574.903 772.549 567.452 772.941 558.824L773.333 548.628C773.725 540.001 781.176 533.334 789.803 533.726C798.431 534.119 805.098 541.57 804.705 550.197L804.313 560.393C803.921 569.02 796.47 575.687 787.843 575.295Z" fill="#423232"/>
<path d="M658.04 548.236C645.099 539.608 630.981 533.726 615.295 536.863C610.197 537.647 605.099 539.216 601.962 542.746C600.785 544.314 598.04 543.922 598.04 541.569C598.432 533.726 605.099 528.628 611.373 525.491C623.53 519.216 640.393 520.393 651.373 528.628C655.295 530.981 668.628 545.491 661.569 548.628C660.001 549.412 659.217 549.02 658.04 548.236Z" fill="#423232"/>
<path d="M770.197 550.197C770.197 533.726 790.589 527.844 803.138 533.726C810.197 536.863 815.295 543.138 817.256 550.589C818.04 552.942 814.511 554.903 812.942 552.942C806.275 545.099 794.903 541.177 785.883 545.883C783.138 547.452 782.746 548.628 781.962 550.197C781.962 558.04 770.589 557.648 770.197 550.197Z" fill="#423232"/>
<path d="M676.864 483.53C685.099 486.275 693.334 478.824 691.766 469.804C690.981 465.098 689.02 460.392 685.099 456.863C673.334 446.275 624.707 436.863 595.295 450.589C569.413 463.138 639.217 470.981 676.864 483.53Z" fill="#423232"/>
<path d="M794.12 489.804C787.453 492.157 780.394 485.098 781.571 476.863C781.963 472.549 783.532 468.236 786.669 465.098C796.081 455.687 828.237 448.236 848.63 462.745C866.277 474.902 824.708 478.432 794.12 489.804Z" fill="#423232"/>
<path d="M908.26 763.531C862.769 647.452 868.652 610.982 879.632 513.334C901.593 321.178 832.181 274.511 795.711 256.08C640.417 177.256 462.377 215.687 395.319 323.923C353.358 391.374 351.789 445.491 328.26 523.138C287.868 656.08 190.613 714.903 220.809 850.982C262.377 985.099 528.26 1044.31 523.162 904.707C520.024 820.393 456.887 809.021 455.711 692.55C455.711 684.707 456.103 677.256 456.887 670.197C348.652 636.08 365.907 520.001 414.926 513.727C449.044 509.413 467.083 528.629 476.103 544.707C476.887 547.06 478.064 549.021 479.24 551.374C487.083 564.707 579.632 539.609 650.22 496.08C691.397 470.589 755.711 426.668 773.358 378.433C774.142 376.472 786.691 436.864 845.515 515.295C842.769 561.962 854.534 678.433 794.926 774.511C751.789 844.707 697.671 850.982 697.671 850.982C697.671 897.648 780.417 895.295 814.926 903.138C858.064 912.55 900.809 938.433 900.809 938.433C900.809 938.433 950.22 870.589 908.26 763.531Z" fill="#423232"/>
<path d="M554.902 647.059C565.882 641.176 576.47 634.902 588.627 631.765C589.804 631.765 590.588 631.372 592.941 632.157C601.176 638.431 577.255 654.117 572.941 658.039C574.117 656.47 573.725 653.725 571.765 652.941C571.372 652.941 571.372 652.549 570.98 652.549C570.196 652.549 570.196 652.549 570.196 652.549C580 649.019 589.804 645.098 599.216 640.392C604.706 638.039 612.157 632.941 618.039 632.549C620.392 632.549 623.137 634.902 622.745 637.255C622.353 640.392 621.568 641.568 620.784 643.529C620 645.098 618.431 647.451 618.039 649.019C618.039 649.412 617.647 648.627 617.647 648.627C617.647 649.019 620 649.019 620.392 648.627C626.666 647.843 633.333 645.49 639.608 643.137C640.784 642.745 641.568 644.314 640.392 645.098C633.725 649.412 626.666 654.117 618.039 654.902C612.549 655.294 609.804 650.196 611.765 645.49C612.549 642.745 614.51 639.608 615.294 637.255C615.294 638.039 616.078 639.216 616.863 639.608C617.647 640 618.039 639.608 617.647 640C613.725 641.176 605.882 645.49 602.353 647.059C592.157 651.765 582.353 656.078 571.372 659.216C570.588 659.216 570.588 659.608 569.412 659.216C566.274 658.823 565.49 654.902 567.843 652.941C572.549 649.019 578.039 645.882 582.353 641.961C584.706 640 587.451 637.255 589.019 634.902C589.019 635.294 589.412 636.078 589.804 636.47C586.274 636.863 579.216 638.823 574.902 640.784C568.627 643.137 561.961 645.882 555.686 648.627C554.902 649.412 553.725 647.451 554.902 647.059Z" fill="#F3B8A3"/>
<path d="M809.019 647.059C812.549 643.137 827.451 624.313 831.372 634.117C831.372 634.902 831.372 635.686 831.372 636.078C829.804 643.921 824.706 650.588 820.784 657.255C821.568 655.294 820 652.549 818.039 652.157C817.255 652.157 816.863 652.157 816.47 652.157C816.078 652.157 816.47 652.157 816.863 651.764C824.706 646.666 830.588 640.392 838.431 634.902C840 634.117 841.961 632.941 843.921 634.117C845.882 635.686 845.49 638.039 844.706 639.608C843.921 641.568 843.137 643.137 842.353 645.098C841.961 645.49 841.568 645.882 840.784 645.49C840.392 645.49 840.392 645.098 840.392 644.706C840.392 643.921 840.392 638.823 840.392 638.039C840.392 637.647 840 637.255 840.392 638.039C840.392 638.431 841.176 639.215 841.961 639.215C842.353 639.215 843.137 639.215 843.137 639.215C836.47 647.059 828.627 654.51 819.608 659.608C816.863 660.784 813.725 658.431 814.117 655.294C814.117 654.902 814.51 654.117 814.902 653.725C817.647 649.804 820.784 645.882 823.137 641.961C824.314 640 825.882 637.255 826.274 635.294C826.274 636.078 827.843 637.255 828.235 636.862C821.961 639.215 816.47 644.314 810.98 648.235C809.412 649.412 808.235 647.843 809.019 647.059Z" fill="#F3B8A3"/>
</g>
</svg>
