<svg width="1197" height="1197" viewBox="0 0 1197 1197" fill="none" xmlns="http://www.w3.org/2000/svg">
<mask id="mask0_716_1237" style="mask-type:alpha" maskUnits="userSpaceOnUse" x="0" y="0" width="1197" height="1197">
<circle cx="598.033" cy="598.033" r="598.033" transform="matrix(-1 0 0 1 1196.07 0)" fill="#D9D9D9"/>
</mask>
<g mask="url(#mask0_716_1237)">
<rect width="1200" height="1200" transform="matrix(-1 0 0 1 1196.07 0)" fill="#F7EEFF"/>
<path d="M139.99 1334.9H1131.75C1131.75 1334.9 1085.48 1185.1 1050.58 1046.67C1036.85 992.55 1011.36 918.824 979.989 897.256C936.852 867.452 865.48 850.589 833.323 839.216C810.97 831.373 793.715 828.628 777.637 824.314C777.637 826.275 777.244 827.844 777.244 829.805C777.244 829.805 741.558 909.805 631.362 954.118C541.558 990.589 510.186 976.079 501.95 935.687C496.852 909.805 483.911 903.922 492.146 890.197C496.852 886.275 499.989 880.393 501.558 874.511L504.695 861.569C497.244 860.001 490.186 858.04 483.127 855.687C480.774 854.903 478.813 854.118 476.46 853.334C432.931 878.04 372.931 885.883 300.382 939.216C287.44 948.628 249.793 989.413 234.107 1088.63C212.146 1219.22 139.99 1334.9 139.99 1334.9Z" fill="#232323"/>
<path d="M132.929 1338.82C427.439 1340 841.556 1343.92 1131.75 1343.14C1136.46 1343.14 1139.99 1339.61 1139.99 1334.9C1128.62 1286.27 1110.18 1216.08 1097.63 1167.06C1087.83 1127.45 1075.67 1083.14 1065.87 1043.14C1051.75 990.98 1034.11 923.137 989.792 888.627C975.282 879.216 959.203 872.549 943.909 866.667C910.184 854.118 875.674 844.706 841.164 834.117C821.556 826.667 799.596 821.961 779.203 816.078C774.89 814.902 770.576 817.255 769.4 821.176C769.007 822.353 769.007 827.451 768.615 828.627L776.851 821.176C773.713 821.176 770.576 823.137 769.4 825.882C766.262 832.549 761.949 839.608 757.635 845.882C716.066 905.882 649.007 944.314 579.203 962.353C559.203 966.666 532.537 971.765 518.027 954.118C508.615 941.961 509.007 923.137 501.556 909.804C498.811 903.529 495.674 899.608 498.811 894.118L497.243 896.078C502.341 891.372 506.262 885.49 508.223 879.216C509.792 873.333 510.968 868.235 512.145 863.137C513.321 858.823 510.184 854.118 505.87 853.333C496.851 851.372 487.439 848.627 478.811 845.49C476.458 844.706 474.105 845.098 472.145 845.882C460.772 850.98 449.007 855.294 436.851 859.608C398.811 871.765 360.772 884.706 325.87 904.706C314.105 911.372 302.733 918.823 291.752 926.667C278.811 936.47 270.576 947.451 262.341 960.392C232.537 1007.06 223.125 1060.78 213.321 1114.12C198.419 1183.14 172.537 1249.8 141.949 1313.33L137.635 1321.96L135.674 1326.27L134.497 1328.24L134.105 1329.41L133.713 1329.8C133.713 1329.41 133.321 1330.2 132.929 1331.37C131.36 1334.12 131.752 1337.25 132.929 1338.82ZM147.047 1330.98C148.223 1332.55 148.615 1335.29 147.831 1337.25C147.439 1338.43 147.047 1339.22 147.047 1338.82L147.439 1338.43L148.223 1337.25L149.4 1335.29C175.282 1290.98 196.851 1244.31 213.713 1196.08C224.694 1164.71 233.713 1132.94 239.596 1100C246.654 1056.47 257.635 1010.98 281.164 973.333C287.439 963.529 295.282 952.941 304.694 945.882C315.282 938.431 325.87 930.98 336.851 924.706C358.811 911.372 382.341 900.784 406.262 891.372C430.184 881.568 455.674 874.117 479.596 860.392L472.929 860.784C482.341 864.314 492.145 867.059 502.341 869.019L496.066 859.216C493.713 867.843 493.321 878.039 486.262 883.921C481.949 888.627 479.988 896.863 481.164 903.529C482.341 909.412 484.694 913.333 486.262 916.863C489.792 924.314 492.145 930.588 493.713 938.823C507.439 1007.06 586.262 980.784 630.968 963.137C693.713 938.039 752.145 894.118 783.909 833.333L776.458 838.039C780.772 838.039 784.302 834.902 784.694 830.588L785.086 825.49L774.89 832.549C796.851 836.47 816.458 839.608 836.851 847.059C883.517 861.568 933.321 873.725 973.713 901.568C1015.67 932.157 1039.6 1040.78 1052.93 1090.98C1067.44 1146.27 1082.73 1201.18 1098.81 1255.69C1107.05 1283.14 1115.28 1310.2 1123.91 1337.65L1131.75 1327.06C847.047 1326.67 435.674 1328.63 147.047 1330.98Z" fill="#232323"/>
<path d="M537.636 983.531C537.244 983.923 537.244 983.923 536.852 984.315C536.852 983.923 536.852 983.531 536.852 983.531C536.852 983.531 537.244 983.531 537.636 983.531Z" fill="#E5E5E5"/>
<path d="M443.908 838.04C443.908 838.04 443.908 800.393 476.849 790.589C537.634 772.158 652.535 763.922 729.398 763.922C729.398 763.922 761.947 766.275 773.712 772.158C785.084 777.648 798.81 781.177 801.947 806.667C803.516 819.216 803.516 839.216 803.124 856.864C802.732 880.393 793.32 903.138 776.849 920.001C750.575 947.06 696.065 982.354 633.712 992.942C483.516 1018.04 442.732 952.55 443.908 917.648C445.477 877.256 443.908 838.04 443.908 838.04Z" fill="#232323"/>
<path d="M452.143 837.648C452.927 820.785 461.947 802.746 479.202 798.04C484.692 796.471 490.182 794.903 495.28 793.726C571.751 776.863 650.967 772.942 729.398 771.765C739.594 772.942 759.202 774.511 770.575 779.216C775.28 781.569 781.163 783.922 785.084 787.06C794.104 794.903 794.496 808.628 794.888 820.785C795.28 827.844 795.28 834.903 795.28 841.962C797.633 889.805 776.457 915.295 738.418 940.785C709.79 960.393 677.633 974.511 643.516 982.354C596.849 991.373 545.084 995.687 500.378 977.648C476.849 968.236 454.888 948.236 452.143 922.354C451.751 916.863 452.143 907.452 452.143 901.962C452.927 881.569 452.927 858.432 452.143 837.648ZM436.065 838.04C436.457 858.824 436.457 881.177 436.065 901.962C436.065 908.628 435.28 918.04 436.065 924.314C439.594 957.256 465.869 981.962 494.496 993.726C539.594 1012.55 589.79 1009.41 636.849 1001.96C647.045 1000 659.594 997.256 669.398 994.118C711.751 980.393 751.359 958.432 783.124 927.06C805.869 904.707 814.496 873.334 812.535 842.354C811.359 819.609 815.28 792.55 796.457 774.903C790.575 770.197 784.692 767.452 778.418 764.707C762.339 758.432 746.653 757.256 730.182 755.687C677.241 756.079 624.3 758.824 571.359 765.099C539.986 769.02 508.222 773.334 477.633 782.354L475.28 783.138L472.535 784.314C458.81 790.981 452.927 805.491 445.084 817.256C439.986 823.53 436.457 830.197 436.065 838.04Z" fill="#232323"/>
<path d="M800.38 856.471C791.753 982.354 597.635 1116.86 482.341 1047.06C452.145 1026.67 443.909 987.844 444.694 953.726C444.694 941.961 445.87 930.197 446.655 918.04C447.047 915.295 442.341 914.51 441.949 917.256C425.478 983.138 433.713 1056.08 510.576 1075.69C618.419 1101.96 740.772 1022.75 788.223 927.844C799.204 905.883 806.262 881.569 806.655 857.256C806.262 853.334 800.772 852.55 800.38 856.471Z" fill="#E5E5E5"/>
<path d="M478.421 963.137C486.657 1003.53 539.99 1027.84 629.794 991.372C723.127 953.725 763.519 863.921 773.716 837.255C718.421 733.725 756.853 661.961 756.853 661.961C629.402 650.98 518.029 800 518.029 800L500.774 873.725C499.206 880 496.069 885.49 491.363 889.412C483.127 903.921 473.323 937.255 478.421 963.137Z" fill="#FFDEC3"/>
<path d="M485.479 902.745C560.38 898.823 621.557 875.294 681.165 769.02C630.969 813.333 571.753 830.196 509.4 838.039L501.165 874.117C499.596 880.392 490.184 898.823 485.479 902.745Z" fill="#EFBDA5"/>
<path d="M336.851 417.255C329.792 450.196 335.283 472.157 338.42 563.137C341.557 652.549 367.44 778.824 399.204 810.588C423.518 834.51 501.557 853.334 570.969 835.686C606.263 826.667 636.067 806.275 660.381 791.765C690.969 773.333 717.636 716.471 739.596 680C756.851 651.373 755.283 685.883 777.636 661.177C808.616 627.451 845.871 559.608 827.44 439.608C797.636 245.098 643.518 222.353 529.4 243.922C414.498 265.49 355.675 330.588 336.851 417.255Z" fill="#FFDEC3"/>
<path d="M711.75 570.98C711.75 570.98 723.907 512.157 781.162 519.215C830.574 525.49 847.829 643.921 735.672 676.863" fill="#FFDEC3"/>
<path d="M740.773 625.491C749.792 620.393 756.067 611.765 756.459 601.177C756.067 593.334 754.89 584.314 756.851 576.471C758.028 569.02 765.871 567.059 771.753 567.451C778.028 568.628 781.949 576.471 783.126 582.746C783.126 583.138 783.518 584.314 783.518 584.706C783.91 586.667 787.047 586.667 787.832 584.706C792.93 569.412 781.557 552.549 765.087 554.51C741.949 556.079 738.812 580.393 743.126 598.824C745.479 606.667 742.341 613.726 738.028 620.393L737.243 621.569C735.283 623.922 738.42 627.059 740.773 625.491Z" fill="#423232"/>
<path d="M427.044 529.412C421.161 557.255 410.181 583.137 396.455 607.451C384.299 637.255 415.671 665.49 443.514 664.313C446.651 664.313 447.044 660 444.299 659.215C426.651 653.725 410.573 641.961 407.828 623.921C406.651 618.431 408.22 613.725 410.965 609.019C423.906 584.706 431.75 556.862 429.789 529.412C429.789 527.451 427.044 527.451 427.044 529.412Z" fill="#423232"/>
<path d="M713.712 571.373C722.732 548.235 742.34 526.275 768.614 526.667C770.967 526.275 774.889 527.059 777.242 527.059C783.908 527.451 789.398 529.804 794.497 534.51C819.595 559.608 815.281 603.922 794.889 631.765C787.83 641.569 778.81 650.196 768.614 657.255C758.418 664.314 747.046 669.804 734.889 674.51C732.144 675.294 733.32 679.608 736.065 679.216C762.34 673.725 787.438 660.784 804.693 639.216C831.359 607.059 836.849 553.333 805.085 521.961C798.026 515.686 788.222 510.98 778.418 510.98C775.281 510.98 770.575 510.196 767.438 510.98C750.967 511.765 735.281 520 725.085 532.941C716.065 543.922 710.967 557.255 709.398 570.588C709.398 572.941 712.928 573.725 713.712 571.373Z" fill="#423232"/>
<path d="M465.871 701.96C465.479 708.235 470.185 719.215 478.812 727.058C523.126 700 543.126 714.117 543.126 714.117C558.812 690.196 555.283 657.647 517.244 682.353C490.969 699.607 474.499 702.353 465.871 701.96Z" fill="#423232"/>
<path d="M479.205 727.451C488.616 735.686 502.734 740.784 521.95 732.941C530.969 729.411 538.028 722.352 543.518 714.509C543.126 714.509 523.518 700.392 479.205 727.451Z" fill="#FFCFD6"/>
<path d="M458.42 700.784C458.42 700.784 474.891 709.804 517.244 682.745C567.832 650.196 557.636 718.431 521.95 732.941C484.695 748.235 465.479 714.902 465.871 702.353" stroke="#423232" stroke-width="3" stroke-miterlimit="10" stroke-linecap="round" stroke-linejoin="round"/>
<path d="M543.124 714.509C543.124 714.509 523.124 700.392 478.811 727.451" stroke="#423232" stroke-width="3" stroke-miterlimit="10" stroke-linecap="round" stroke-linejoin="round"/>
<path d="M573.319 569.412C582.731 569.02 589.79 561.177 589.006 551.765L588.614 540.785C588.221 531.373 580.378 524.314 570.966 525.099C561.555 525.491 554.496 533.334 555.28 542.746L555.672 553.726C556.064 562.746 563.908 569.804 573.319 569.412Z" fill="#423232"/>
<path d="M408.223 575.295C416.85 574.903 423.517 567.452 423.125 558.824L422.733 548.628C422.34 540.001 414.889 533.334 406.262 533.726C397.634 534.119 390.968 541.57 391.36 550.197L391.752 560.393C392.144 569.02 399.595 575.687 408.223 575.295Z" fill="#423232"/>
<path d="M538.025 548.236C550.967 539.608 565.084 533.726 580.771 536.863C585.869 537.647 590.967 539.216 594.104 542.746C595.28 544.314 598.025 543.922 598.025 541.569C597.633 533.726 590.967 528.628 584.692 525.491C572.535 519.216 555.672 520.393 544.692 528.628C540.77 530.981 527.437 545.491 534.496 548.628C536.065 549.412 536.849 549.02 538.025 548.236Z" fill="#423232"/>
<path d="M425.868 550.197C425.868 533.726 405.476 527.844 392.927 533.726C385.868 536.863 380.77 543.138 378.81 550.589C378.025 552.942 381.555 554.903 383.123 552.942C389.79 545.099 401.163 541.177 410.182 545.883C412.927 547.452 413.319 548.628 414.104 550.197C414.104 558.04 425.476 557.648 425.868 550.197Z" fill="#423232"/>
<path d="M519.202 483.53C510.966 486.275 502.731 478.824 504.3 469.804C505.084 465.098 507.045 460.392 510.967 456.863C522.731 446.275 571.359 436.863 600.77 450.589C626.653 463.138 556.849 470.981 519.202 483.53Z" fill="#423232"/>
<path d="M401.946 489.804C408.612 492.157 415.671 485.098 414.495 476.863C414.102 472.549 412.534 468.236 409.397 465.098C399.985 455.687 367.828 448.236 347.436 462.745C329.789 474.902 371.357 478.432 401.946 489.804Z" fill="#423232"/>
<path d="M287.806 763.531C333.296 647.452 327.414 610.982 316.433 513.334C294.472 321.178 363.884 274.511 400.355 256.08C555.649 177.256 733.688 215.687 800.747 323.923C842.708 391.374 844.276 445.491 867.806 523.138C908.198 656.08 1005.45 714.903 975.257 850.982C933.688 985.099 667.806 1044.31 672.904 904.707C676.041 820.393 739.178 809.021 740.355 692.55C740.355 684.707 739.963 677.256 739.178 670.197C847.414 636.08 830.159 520.001 781.139 513.727C747.021 509.413 728.982 528.629 719.963 544.707C719.178 547.06 718.002 549.021 716.825 551.374C708.982 564.707 616.433 539.609 545.845 496.08C504.668 470.589 440.355 426.668 422.708 378.433C421.923 376.472 409.374 436.864 350.551 515.295C353.296 561.962 341.531 678.433 401.139 774.511C444.276 844.707 498.394 850.982 498.394 850.982C498.394 897.648 415.649 895.295 381.139 903.138C338.002 912.55 295.257 938.433 295.257 938.433C295.257 938.433 245.845 870.589 287.806 763.531Z" fill="#423232"/>
<path d="M641.164 647.059C630.183 641.176 619.595 634.902 607.438 631.765C606.262 631.765 605.477 631.372 603.124 632.157C594.889 638.431 618.811 654.117 623.124 658.039C621.948 656.47 622.34 653.725 624.301 652.941C624.693 652.941 624.693 652.549 625.085 652.549C625.87 652.549 625.87 652.549 625.87 652.549C616.066 649.019 606.262 645.098 596.85 640.392C591.36 638.039 583.909 632.941 578.026 632.549C575.673 632.549 572.928 634.902 573.321 637.255C573.713 640.392 574.497 641.568 575.281 643.529C576.066 645.098 577.634 647.451 578.026 649.019C578.026 649.412 578.419 648.627 578.419 648.627C578.419 649.019 576.066 649.019 575.673 648.627C569.399 647.843 562.732 645.49 556.458 643.137C555.281 642.745 554.497 644.314 555.673 645.098C562.34 649.412 569.399 654.117 578.026 654.902C583.517 655.294 586.262 650.196 584.301 645.49C583.517 642.745 581.556 639.608 580.772 637.255C580.772 638.039 579.987 639.216 579.203 639.608C578.419 640 578.026 639.608 578.419 640C582.34 641.176 590.183 645.49 593.713 647.059C603.909 651.765 613.713 656.078 624.693 659.216C625.477 659.216 625.477 659.608 626.654 659.216C629.791 658.823 630.575 654.902 628.222 652.941C623.517 649.019 618.026 645.882 613.713 641.961C611.36 640 608.615 637.255 607.046 634.902C607.046 635.294 606.654 636.078 606.262 636.47C609.791 636.863 616.85 638.823 621.164 640.784C627.438 643.137 634.105 645.882 640.379 648.627C641.164 649.412 642.34 647.451 641.164 647.059Z" fill="#F3B8A3"/>
<path d="M387.046 647.059C383.517 643.137 368.615 624.313 364.693 634.117C364.693 634.902 364.693 635.686 364.693 636.078C366.262 643.921 371.36 650.588 375.281 657.255C374.497 655.294 376.066 652.549 378.026 652.157C378.811 652.157 379.203 652.157 379.595 652.157C379.987 652.157 379.595 652.157 379.203 651.764C371.36 646.666 365.477 640.392 357.634 634.902C356.066 634.117 354.105 632.941 352.144 634.117C350.183 635.686 350.575 638.039 351.36 639.608C352.144 641.568 352.928 643.137 353.713 645.098C354.105 645.49 354.497 645.882 355.281 645.49C355.673 645.49 355.673 645.098 355.673 644.706C355.673 643.921 355.673 638.823 355.673 638.039C355.673 637.647 356.066 637.255 355.673 638.039C355.673 638.431 354.889 639.215 354.105 639.215C353.713 639.215 352.928 639.215 352.928 639.215C359.595 647.059 367.438 654.51 376.458 659.608C379.203 660.784 382.34 658.431 381.948 655.294C381.948 654.902 381.556 654.117 381.164 653.725C378.419 649.804 375.281 645.882 372.928 641.961C371.752 640 370.183 637.255 369.791 635.294C369.791 636.078 368.223 637.255 367.83 636.862C374.105 639.215 379.595 644.314 385.085 648.235C386.654 649.412 387.83 647.843 387.046 647.059Z" fill="#F3B8A3"/>
</g>
</svg>
